<?xml version="1.0" standalone="no"?>
<!DOCTYPE svg PUBLIC "-//W3C//DTD SVG 20010904//EN"
 "http://www.w3.org/TR/2001/REC-SVG-20010904/DTD/svg10.dtd">
<svg version="1.0" xmlns="http://www.w3.org/2000/svg"
 width="1000.000000pt" height="1000.000000pt" viewBox="0 0 1000.000000 1000.000000"
 preserveAspectRatio="xMidYMid meet">
<metadata>
Created by potrace 1.11, written by Peter Selinger 2001-2013
</metadata>
<g transform="translate(0.000000,1000.000000) scale(0.100000,-0.100000)"
fill="#000000" stroke="none">
<path d="M0 5000 l0 -5000 5000 0 5000 0 0 5000 0 5000 -5000 0 -5000 0 0
-5000z m5296 4280 c1186 -92 2234 -629 2993 -1533 602 -718 954 -1630 989
-2560 35 -916 -195 -1763 -686 -2522 -199 -308 -489 -642 -772 -889 -1100
-961 -2584 -1295 -3995 -900 -995 278 -1879 935 -2441 1814 -353 552 -563
1141 -651 1825 -14 110 -18 213 -18 485 0 369 8 472 61 765 297 1652 1545
2987 3174 3395 430 108 927 152 1346 120z"/>
<path d="M4459 8441 c-16 -16 -29 -37 -29 -46 0 -42 23 -58 151 -105 66 -24
108 -63 94 -86 -6 -8 -36 -26 -68 -39 -88 -35 -90 -38 -82 -116 5 -47 3 -69
-5 -74 -17 -11 -28 4 -59 80 l-27 68 -160 -3 c-87 -1 -187 -3 -221 -4 -53 -1
-65 3 -88 24 -24 23 -26 31 -24 90 l3 65 -45 43 -46 42 -79 -29 c-182 -68
-430 -184 -402 -189 9 -2 59 19 111 47 122 64 198 87 243 73 25 -7 35 -6 46 4
12 12 21 5 64 -48 71 -89 72 -84 -3 -80 -78 5 -162 -11 -197 -39 -24 -19 -24
-21 -10 -54 14 -35 19 -75 8 -75 -3 0 -35 25 -72 56 -84 72 -114 84 -204 84
-70 0 -75 -2 -168 -57 -450 -267 -846 -640 -1149 -1083 l-64 -93 25 -21 c14
-12 33 -25 42 -31 9 -5 22 -30 27 -55 13 -57 19 -63 51 -46 23 12 29 12 39 -1
7 -8 13 -33 14 -56 l1 -40 125 -78 c136 -85 229 -165 229 -199 0 -27 -29 -77
-48 -85 -8 -3 -32 11 -55 30 -22 19 -44 35 -49 35 -12 0 -10 -84 3 -117 5 -15
20 -36 32 -45 12 -10 16 -18 9 -18 -29 0 -44 -73 -51 -240 -7 -182 -1 -276 25
-352 20 -61 68 -118 99 -118 18 0 21 -4 18 -24 -6 -31 43 -124 106 -203 29
-36 79 -79 132 -114 111 -73 139 -108 183 -222 21 -52 48 -105 62 -118 13 -12
24 -34 24 -47 0 -14 18 -49 40 -78 60 -79 77 -120 62 -145 -17 -26 -6 -41 68
-87 70 -44 88 -66 96 -122 8 -57 20 -80 41 -80 13 0 15 9 10 56 -7 68 -39 137
-150 322 -77 128 -99 177 -122 274 l-7 28 40 -14 c85 -30 102 -44 96 -75 -12
-58 36 -136 180 -291 94 -102 156 -193 156 -230 0 -21 6 -29 25 -34 39 -10
142 -112 170 -171 15 -29 33 -93 41 -142 30 -172 58 -207 247 -304 56 -29 131
-70 166 -91 130 -80 183 -91 307 -62 98 23 135 15 187 -44 110 -122 141 -147
217 -176 49 -19 102 -30 152 -34 l77 -5 15 -38 c20 -48 101 -186 130 -218 17
-20 126 -107 183 -146 10 -7 18 -5 27 8 12 15 15 13 30 -27 10 -25 33 -59 52
-76 54 -47 106 -37 128 25 10 28 24 105 19 105 -2 0 -23 -5 -47 -11 -96 -24
-176 28 -237 155 -52 108 -50 156 7 156 44 0 47 22 18 117 -20 68 -38 103 -77
153 -28 36 -52 67 -54 69 -2 2 -11 -3 -20 -11 -32 -27 -70 -30 -118 -9 l-45
20 -6 -24 c-6 -24 -31 -33 -71 -27 -28 4 -29 21 -8 150 12 71 26 114 60 182
47 94 55 139 30 160 -22 18 -106 24 -147 11 -49 -16 -72 -45 -102 -129 -35
-99 -41 -109 -79 -129 -38 -20 -175 -22 -243 -3 -79 22 -161 130 -199 265 -20
66 -22 189 -5 274 14 72 13 197 -2 237 -11 32 -10 35 39 91 40 46 58 59 88 64
48 8 60 27 35 54 -20 21 -20 21 14 17 19 -2 75 3 125 12 97 16 96 16 199 -25
29 -12 34 -11 53 7 19 19 19 25 9 61 -7 21 -10 50 -8 63 4 23 5 24 13 5 12
-31 47 -65 65 -65 9 0 32 8 52 18 20 11 42 16 50 12 7 -4 47 -15 88 -24 55
-12 87 -26 119 -51 l44 -35 35 20 c28 17 37 18 44 8 38 -57 49 -85 73 -174 31
-117 59 -172 98 -194 58 -32 86 28 68 148 -6 40 -11 108 -11 150 l0 77 -49 22
c-42 18 -51 27 -60 59 -9 31 -7 45 9 81 36 82 67 112 169 159 102 48 127 66
172 128 23 30 29 50 29 88 0 33 4 48 13 48 8 0 22 8 31 19 16 18 16 20 -16 40
-66 41 -63 38 -49 55 7 8 11 27 10 43 -3 33 43 138 65 146 8 3 20 -1 26 -9 18
-21 73 -17 98 6 24 23 27 41 12 70 -15 29 22 50 137 80 24 6 52 20 63 32 11
12 23 19 26 15 16 -15 34 18 34 62 0 76 24 104 125 142 53 20 101 46 122 66
20 18 51 35 72 39 75 14 141 63 141 104 0 9 -11 27 -25 40 -14 13 -25 31 -25
41 0 21 -17 35 -66 53 l-39 15 55 0 c61 1 100 21 100 50 0 25 -53 46 -117 45
-65 0 -191 -60 -227 -107 -14 -18 -39 -40 -56 -50 l-31 -19 34 69 c19 37 46
77 58 89 66 58 162 92 352 125 144 25 209 21 274 -16 l46 -25 61 60 c49 49 71
64 116 76 30 8 71 22 90 32 34 16 35 19 38 80 3 60 2 62 -21 62 -37 0 -75 36
-89 83 -15 52 -15 52 -32 38 -12 -10 -16 -8 -21 10 -7 20 -11 21 -71 15 -111
-11 -159 25 -195 148 -17 59 -30 81 -74 126 -29 30 -65 78 -79 106 -14 28 -33
54 -42 58 -20 8 -55 -22 -86 -72 -17 -28 -25 -33 -47 -29 -18 4 -40 -3 -71
-23 -48 -29 -125 -51 -102 -28 7 7 12 16 12 21 0 12 -64 37 -95 37 -27 0 -34
14 -10 24 22 8 19 68 -5 99 -11 14 -17 32 -14 41 4 11 -23 29 -113 72 -143 69
-227 93 -354 101 -96 6 -97 6 -114 -20 -16 -26 -16 -30 9 -108 29 -90 28 -106
-15 -160 -43 -55 -39 -83 18 -122 71 -48 93 -73 93 -104 0 -46 -35 -90 -109
-138 -39 -24 -75 -54 -82 -66 -18 -35 -5 -106 30 -156 19 -26 30 -52 26 -62
-7 -23 -105 -81 -138 -81 -61 0 -131 97 -163 226 -23 93 -59 129 -135 139 -30
4 -66 2 -80 -3 -23 -9 -29 -6 -54 25 -31 39 -107 78 -225 114 -60 18 -97 22
-188 22 -71 -1 -110 2 -106 8 23 38 -42 139 -90 139 -22 0 -24 3 -17 23 4 12
11 53 15 92 9 88 28 131 104 228 34 43 64 87 67 98 6 17 16 19 86 19 126 0
190 39 250 151 17 31 44 72 60 92 25 31 37 37 68 37 21 0 64 -11 95 -25 73
-32 129 -33 150 -3 22 31 20 74 -4 113 -17 28 -18 34 -5 39 21 8 19 39 -5 86
-23 45 -45 54 -103 45 -70 -12 -120 -46 -85 -57 17 -6 -5 -39 -78 -117 -43
-47 -63 -61 -85 -61 -34 0 -64 30 -80 79 -24 76 -40 101 -66 101 -24 0 -73
-42 -73 -64 -1 -6 -8 1 -16 16 -15 29 -81 67 -151 88 l-42 13 20 27 c17 23 18
30 8 53 -24 53 -119 97 -212 97 -40 0 -54 -5 -78 -29z"/>
<path d="M6205 3073 c-16 -9 -73 -47 -126 -85 -89 -64 -99 -73 -125 -133 -21
-48 -33 -63 -44 -58 -50 20 -93 33 -97 29 -6 -6 14 -203 34 -330 26 -174 5
-254 -96 -351 -81 -78 -118 -134 -126 -194 -8 -56 12 -113 44 -131 30 -16 26
-41 -19 -126 -32 -60 -40 -86 -40 -127 0 -29 4 -57 8 -64 6 -9 37 -6 127 13
627 133 1240 458 1696 901 65 64 119 119 119 124 0 5 -19 13 -42 19 -24 5 -82
23 -130 38 -82 25 -87 29 -93 59 -9 47 -47 88 -139 149 -45 29 -100 67 -123
85 -60 45 -122 50 -191 15 -29 -15 -52 -31 -52 -37 0 -6 -23 7 -51 30 -28 22
-69 48 -91 58 -23 10 -79 37 -124 61 -91 46 -118 50 -152 26 -31 -21 -45 -51
-53 -112 -8 -59 -12 -67 -28 -57 -17 10 -13 62 9 102 25 47 25 75 2 96 -23 21
-58 21 -97 0z"/>
</g>
</svg>
